<?xml version="1.0" encoding="UTF-8" standalone="no"?>
<svg width="325.967mm" height="316.442mm"
 viewBox="0 0 924 897"
 xmlns="http://www.w3.org/2000/svg" xmlns:xlink="http://www.w3.org/1999/xlink"  version="1.2" baseProfile="tiny">
<title>anusha</title>
<desc>Generated with Qt</desc>
<defs>
</defs>
<g fill="none" stroke="black" stroke-width="1" fill-rule="evenodd" stroke-linecap="square" stroke-linejoin="bevel" >

<g fill="none" stroke="#000000" stroke-opacity="1" stroke-width="1" stroke-linecap="square" stroke-linejoin="bevel" transform="matrix(1,0,0,1,0,0)"
font-family=".AppleSystemUIFont" font-size="13" font-weight="400" font-style="normal" 
>
</g>

<g fill="#000000" fill-opacity="1" stroke="none" transform="matrix(1,0,0,1,0,0)"
font-family=".AppleSystemUIFont" font-size="13" font-weight="400" font-style="normal" 
>
<path vector-effect="none" fill-rule="nonzero" d="M99.1211,218.285 C150.391,209.008 169.434,204.613 208.496,192.406 C260.254,176.293 297.363,159.203 338.379,140.16 C423.828,100.121 531.25,49.8281 606.445,1 L657.227,63.5 L456.543,148.949 L242.188,423.363 C346.191,554.223 468.262,700.219 572.266,831.078 C620.117,815.941 666.992,803.734 704.59,776.879 C760.254,737.328 767.09,721.703 791.016,686.059 C834.473,621.605 844.727,548.852 853.027,480.492 L923.34,567.895 C895.996,627.953 887.695,652.367 856.445,690.941 C818.848,737.816 807.617,749.535 756.348,787.133 C717.773,815.453 682.617,829.125 642.578,847.191 C607.91,862.816 551.27,881.371 501.953,896.508 L158.691,472.68 L383.789,184.594 C333.984,214.379 313.965,222.68 263.672,247.094 C204.102,276.391 200.684,276.391 139.648,298.852 C99.6094,313.5 46.875,329.613 3.41797,336.449 C35.1563,297.387 67.3828,257.348 99.1211,218.285 M610.352,649.926 L665.039,578.148 L604.004,503.441 L549.316,574.73 L610.352,649.926"/>
</g>

<g fill="none" stroke="#000000" stroke-opacity="1" stroke-width="1" stroke-linecap="square" stroke-linejoin="bevel" transform="matrix(1,0,0,1,0,0)"
font-family=".AppleSystemUIFont" font-size="13" font-weight="400" font-style="normal" 
>
</g>
</g>
</svg>
