<?xml version="1.0" encoding="UTF-8" standalone="no"?>
<svg width="138.642mm" height="220.133mm"
 viewBox="0 0 393 624"
 xmlns="http://www.w3.org/2000/svg" xmlns:xlink="http://www.w3.org/1999/xlink"  version="1.2" baseProfile="tiny">
<title>Bhakti</title>
<desc>Generated with Qt</desc>
<defs>
</defs>
<g fill="none" stroke="black" stroke-width="1" fill-rule="evenodd" stroke-linecap="square" stroke-linejoin="bevel" >

<g fill="none" stroke="#000000" stroke-opacity="1" stroke-width="1" stroke-linecap="square" stroke-linejoin="bevel" transform="matrix(1,0,0,1,0,0)"
font-family=".AppleSystemUIFont" font-size="13" font-weight="400" font-style="normal" 
>
</g>

<g fill="#000000" fill-opacity="1" stroke="none" transform="matrix(1,0,0,1,0,0)"
font-family=".AppleSystemUIFont" font-size="13" font-weight="400" font-style="normal" 
>
<path vector-effect="none" fill-rule="nonzero" d="M1,1 L1,40 C41,40 82,40 122,40 C198,40 316,40 392,40 L392,1 L1,1 M179,623 C204,623 214,614 213,614 L198,614 C176,614 179,576 179,569 L175,39 L126,39 C126,217 128,391 128,569 C128,603 146,623 179,623 "/>
</g>

<g fill="#000000" fill-opacity="1" stroke="none" transform="matrix(1,0,0,1,0,0)"
font-family=".AppleSystemUIFont" font-size="13" font-weight="400" font-style="normal" 
>
<path vector-effect="none" fill-rule="nonzero" d="M86,169 C86,143 95,144 99,143 C99,143 112,143 120,152 L127,160 L127,138 C117,127 107,119 91,119 C79,119 67,124 57,131 C47,138 37,157 37,170 C37,174 37,203 37,213 C37,318 36,372 37,477 C37,490 47,509 57,516 C67,523 79,528 91,528 C107,528 118,520 128,509 L128,487 L120,495 C111,504 99,504 99,504 C95,503 86,504 86,478 L86,169 M307,494 C306,502 297,511 284,511 C273,511 265,502 265,485 L265,213 C265,203 265,175 265,171 C265,158 257,138 247,131 C237,124 223,119 211,119 C195,119 185,127 175,138 L175,160 L182,152 C190,143 203,143 203,143 C207,144 216,143 216,169 L216,474 C216,508 234,528 265,528 C295,528 324,508 324,479 L307,494 M276,479 C276,492 287,503 300,503 C313,503 324,492 324,479 C324,466 313,455 300,455 C287,455 276,466 276,479 "/>
</g>

<g fill="none" stroke="#000000" stroke-opacity="1" stroke-width="1" stroke-linecap="square" stroke-linejoin="bevel" transform="matrix(1,0,0,1,0,0)"
font-family=".AppleSystemUIFont" font-size="13" font-weight="400" font-style="normal" 
>
</g>
</g>
</svg>
