<?xml version="1.0" encoding="UTF-8" standalone="no"?>
<svg width="256.117mm" height="257.881mm"
 viewBox="0 0 726 731"
 xmlns="http://www.w3.org/2000/svg" xmlns:xlink="http://www.w3.org/1999/xlink"  version="1.2" baseProfile="tiny">
<title>Chaitanya</title>
<desc>Generated with Qt</desc>
<defs>
</defs>
<g fill="none" stroke="black" stroke-width="1" fill-rule="evenodd" stroke-linecap="square" stroke-linejoin="bevel" >

<g fill="none" stroke="#000000" stroke-opacity="1" stroke-width="1" stroke-linecap="square" stroke-linejoin="bevel" transform="matrix(1,0,0,1,0,0)"
font-family=".AppleSystemUIFont" font-size="13" font-weight="400" font-style="normal" 
>
</g>

<g fill="#000000" fill-opacity="1" stroke="none" transform="matrix(1,0,0,1,0,0)"
font-family=".AppleSystemUIFont" font-size="13" font-weight="400" font-style="normal" 
>
<path vector-effect="none" fill-rule="nonzero" d="M640,9.11111 C640.667,9.11111 641.333,9.44444 642,10.1111 C642.667,10.7778 643,11.4444 643,12.1111 L644,22.1111 L651,61.1111 L652,112.111 L652,125.111 C652,137.111 652.333,145.111 653,149.111 C653,151.111 652.333,152.111 651,152.111 C649.667,152.111 646.833,150.778 642.5,148.111 C638.167,145.444 634.333,143.444 631,142.111 C625,140.778 616.667,138.111 606,134.111 L573,122.111 C565.667,124.111 555,125.278 541,125.611 C527,125.944 516.333,126.111 509,126.111 L484,137.111 C460,148.444 384.667,179.111 258,229.111 L234,311.111 L230,432.111 L234,440.111 L275,575.111 L335,594.111 L397,642.111 C401.667,646.111 414,649.444 434,652.111 C454,654.778 470.667,655.444 484,654.111 C496.667,652.778 510.833,648.611 526.5,641.611 C542.167,634.611 557,625.444 571,614.111 C583,603.444 591.833,591.611 597.5,578.611 C603.167,565.611 606,555.444 606,548.111 C606,545.444 607.667,540.111 611,532.111 C614.333,524.111 615,520.444 613,521.111 L578,528.111 C566,530.778 557.667,532.111 553,532.111 C543.667,532.111 534,530.111 524,526.111 C520,524.778 514.667,523.778 508,523.111 C501.333,522.444 495.5,521.444 490.5,520.111 C485.5,518.778 479.333,515.778 472,511.111 C458,501.111 446.667,492.444 438,485.111 L405,460.111 C403,452.111 401.667,447.778 401,447.111 C400.333,446.444 396.333,443.611 389,438.611 C381.667,433.611 372.333,425.444 361,414.111 L371,391.111 C371.667,387.778 374.333,382.444 379,375.111 C383,359.778 391.333,337.444 404,308.111 C416.667,278.778 428,259.444 438,250.111 C440,244.778 441.833,239.611 443.5,234.611 C445.167,229.611 447.333,226.444 450,225.111 C452,223.778 454,222.611 456,221.611 C458,220.611 462.333,219.944 469,219.611 C475.667,219.278 485,219.444 497,220.111 L535,218.111 C548.333,217.444 561,216.778 573,216.111 C585,215.444 594.333,215.444 601,216.111 C607.667,216.778 616.667,216.944 628,216.611 C639.333,216.278 651.333,216.111 664,216.111 L695,215.111 C697,215.778 698,216.778 698,218.111 C697.333,219.444 696.5,221.944 695.5,225.611 C694.5,229.278 694,234.111 694,240.111 C694.667,248.111 695.333,256.444 696,265.111 C697.333,271.111 698.167,276.611 698.5,281.611 C698.833,286.611 698,288.778 696,288.111 C694,286.778 686.333,285.611 673,284.611 C659.667,283.611 646.667,283.111 634,283.111 C624,283.111 618,283.444 616,284.111 C606.667,285.444 598.667,286.111 592,286.111 C586.667,286.111 581.333,285.444 576,284.111 C574,283.444 571.667,281.944 569,279.611 C566.333,277.278 563,276.778 559,278.111 L527,284.111 L490,289.111 L480,305.111 C476.667,308.444 471.667,312.111 465,316.111 L457,325.111 L453,332.111 L446,347.111 L444,361.111 C446,365.778 447.833,368.444 449.5,369.111 C451.167,369.778 451.667,370.111 451,370.111 C452.333,371.444 490.333,372.778 565,374.111 C609,374.111 634.667,374.444 642,375.111 C652,376.444 658.833,377.444 662.5,378.111 C666.167,378.778 669.667,379.111 673,379.111 C679.667,379.111 690,382.944 704,390.611 C718,398.278 725,406.111 725,414.111 C725,434.778 718.5,464.278 705.5,502.611 C692.5,540.944 663.667,591.444 619,654.111 C615.667,659.444 612.333,663.778 609,667.111 C605.667,670.444 602.333,673.778 599,677.111 L403,728.111 L367,728.111 L348,730.111 C342.667,730.111 338.333,728.444 335,725.111 C330.333,722.444 323.833,720.611 315.5,719.611 C307.167,718.611 298.667,717.444 290,716.111 L221,702.111 C217.667,702.111 213,700.278 207,696.611 C201,692.944 196.333,689.444 193,686.111 C190.333,683.444 182.667,679.611 170,674.611 C157.333,669.611 147,666.111 139,664.111 C135.667,663.444 133.667,662.278 133,660.611 C132.333,658.944 131.667,657.444 131,656.111 L121,576.111 C117.667,575.444 115,573.444 113,570.111 C111,566.778 109.333,562.778 108,558.111 C104,546.111 101.333,538.778 100,536.111 C96,526.778 94,521.111 94,519.111 C94,516.444 95,512.944 97,508.611 C99,504.278 100.333,500.111 101,496.111 C102.333,487.444 97.3333,461.111 86,417.111 L80,389.111 C79.3333,385.111 79.1667,380.278 79.5,374.611 C79.8333,368.944 80,362.778 80,356.111 L92,326.111 C94,320.111 97,300.111 101,266.111 C105,232.111 107.667,207.778 109,193.111 L111,186.111 L164,108.111 L431,1.11111 C433,0.444444 464,2.77778 524,8.11111 L640,9.11111"/>
</g>

<g fill="none" stroke="#000000" stroke-opacity="1" stroke-width="1" stroke-linecap="square" stroke-linejoin="bevel" transform="matrix(1,0,0,1,0,0)"
font-family=".AppleSystemUIFont" font-size="13" font-weight="400" font-style="normal" 
>
</g>
</g>
</svg>
