<?xml version="1.0" encoding="UTF-8" standalone="no"?>
<svg width="233.892mm" height="200.025mm"
 viewBox="0 0 663 567"
 xmlns="http://www.w3.org/2000/svg" xmlns:xlink="http://www.w3.org/1999/xlink"  version="1.2" baseProfile="tiny">
<title>Kavin</title>
<desc>Generated with Qt</desc>
<defs>
</defs>
<g fill="none" stroke="black" stroke-width="1" fill-rule="evenodd" stroke-linecap="square" stroke-linejoin="bevel" >

<g fill="none" stroke="#000000" stroke-opacity="1" stroke-width="1" stroke-linecap="square" stroke-linejoin="bevel" transform="matrix(1,0,0,1,0,0)"
font-family=".AppleSystemUIFont" font-size="13" font-weight="400" font-style="normal" 
>
</g>

<g fill="#000000" fill-opacity="1" stroke="none" transform="matrix(1,0,0,1,0,0)"
font-family=".AppleSystemUIFont" font-size="13" font-weight="400" font-style="normal" 
>
<path vector-effect="none" fill-rule="nonzero" d="M540,123.421 C519,87.4209 462,29.4209 419,19.4209 C389,12.4209 345,31.4209 345,73.4209 C345,110.421 370,131.421 401,131.421 C435,131.421 457,98.4209 451,55.4209 L455,55.4209 C490,118.421 502,188.421 495,250.421 L213,250.421 C216,190.421 213,137.421 207,91.4209 C176,63.4209 119,12.4209 76,2.42087 C46,-4.57913 2,14.4209 2,56.4209 C2,93.4209 27,114.421 58,114.421 C92,114.421 114,81.4209 108,38.4209 L112,38.4209 C146,113.421 92,362.421 58,439.421 L58,443.421 L203,566.421 L207,566.421 C345,544.421 411,548.421 498,443.421 C565,362.421 585,202.421 540,123.421 M185,457.421 C197,401.421 205,350.421 209,303.421 L484,303.421 C473,336.421 456,364.421 434,383.421 C373,436.421 278,459.421 190,460.421 L185,457.421"/>
</g>

<g fill="none" stroke="#000000" stroke-opacity="1" stroke-width="1" stroke-linecap="square" stroke-linejoin="bevel" transform="matrix(1,0,0,1,0,0)"
font-family=".AppleSystemUIFont" font-size="13" font-weight="400" font-style="normal" 
>
</g>
</g>
</svg>
