<?xml version="1.0" encoding="UTF-8" standalone="no"?>
<svg width="222.603mm" height="246.944mm"
 viewBox="0 0 631 700"
 xmlns="http://www.w3.org/2000/svg" xmlns:xlink="http://www.w3.org/1999/xlink"  version="1.2" baseProfile="tiny">
<title>Ravi</title>
<desc>Generated with Qt</desc>
<defs>
</defs>
<g fill="none" stroke="black" stroke-width="1" fill-rule="evenodd" stroke-linecap="square" stroke-linejoin="bevel" >

<g fill="none" stroke="#000000" stroke-opacity="1" stroke-width="1" stroke-linecap="square" stroke-linejoin="bevel" transform="matrix(1,0,0,1,0,0)"
font-family=".AppleSystemUIFont" font-size="13" font-weight="400" font-style="normal" 
>
</g>

<g fill="#000000" fill-opacity="1" stroke="none" transform="matrix(1,0,0,1,0,0)"
font-family=".AppleSystemUIFont" font-size="13" font-weight="400" font-style="normal" 
>
<path vector-effect="none" fill-rule="nonzero" d="M40,1 L178,1 L178,197 L40,197 L40,1 M243,1 L381,1 L379,689 L241,689 L243,1 M40,390 L178,250 L178,561 L40,546 L40,390 M9,163 L57,163 L57,197 L9,197 L9,163 M178,1 C181.333,17.6667 189.167,31.1667 201.5,41.5 C213.833,51.8333 227.667,58.6667 243,62 L243,111 C229.667,111 217.5,109.5 206.5,106.5 C195.5,103.5 185.667,96.6667 177,86 L178,1 M178,535 L178,597 C178,604.333 178.167,609.333 178.5,612 C178.833,614.667 179.667,617.667 181,621 C187,634.333 193.5,641.667 200.5,643 C207.5,644.333 212.667,645 216,645 L241,645 L241,689 L173,689 C163.667,689 153.333,686.5 142,681.5 C130.667,676.5 121.667,671.667 115,667 C103.667,659.667 94.6667,652 88,644 C81.3333,636 73.3333,626.333 64,615 C55.3333,603 49,591.667 45,581 C41,570.333 39.3333,556.333 40,539 L178,535 M497,689 C483,688.333 470.5,683.167 459.5,673.5 C448.5,663.833 442.333,651.333 441,636 C441.667,530.667 442,424.833 442,318.5 C442,212.167 442.333,106.333 443,1 L527,1 C539.667,1 551.833,5.5 563.5,14.5 C575.167,23.5 581,37.6667 581,57 L579,689 L497,689 M177,251 L350,89 L373,53 L383,58 L443,1 L447,1 L443,62 L177,315 L177,251"/>
</g>

<g fill="none" stroke="#000000" stroke-opacity="1" stroke-width="1" stroke-linecap="square" stroke-linejoin="bevel" transform="matrix(1,0,0,1,0,0)"
font-family=".AppleSystemUIFont" font-size="13" font-weight="400" font-style="normal" 
>
</g>
</g>
</svg>
