<?xml version="1.0" encoding="UTF-8" standalone="no"?>
<svg width="358.775mm" height="202.142mm"
 viewBox="0 0 1017 573"
 xmlns="http://www.w3.org/2000/svg" xmlns:xlink="http://www.w3.org/1999/xlink"  version="1.2" baseProfile="tiny">
<title>Sayana</title>
<desc>Generated with Qt</desc>
<defs>
</defs>
<g fill="none" stroke="black" stroke-width="1" fill-rule="evenodd" stroke-linecap="square" stroke-linejoin="bevel" >

<g fill="none" stroke="#000000" stroke-opacity="1" stroke-width="1" stroke-linecap="square" stroke-linejoin="bevel" transform="matrix(1,0,0,1,0,0)"
font-family=".AppleSystemUIFont" font-size="13" font-weight="400" font-style="normal" 
>
</g>

<g fill="#000000" fill-opacity="1" stroke="none" transform="matrix(1,0,0,1,0,0)"
font-family=".AppleSystemUIFont" font-size="13" font-weight="400" font-style="normal" 
>
<path vector-effect="none" fill-rule="nonzero" d="M499,145.745 L573,218.745 C766,90.7449 754,254.745 650,385.745 C601,331.745 549,260.745 494,172.745 C402,23.7449 208,-72.2551 82,72.7449 C-111,297.745 146,602.745 447,569.745 C517,562.745 583,531.745 636,490.745 C827,626.745 1002,572.745 1002,277.745 L926,202.745 C916,498.745 826,546.745 698,433.745 C810,309.745 847,139.745 758,96.7449 C649,43.7449 539,109.745 499,145.745 M143,108.745 C220,33.7449 329,126.745 433,275.745 C483,347.745 535,405.745 586,450.745 C536,491.745 474,520.745 408,516.745 C190,504.745 44,206.745 143,108.745 "/>
</g>

<g fill="none" stroke="#000000" stroke-opacity="1" stroke-width="1" stroke-linecap="square" stroke-linejoin="bevel" transform="matrix(1,0,0,1,0,0)"
font-family=".AppleSystemUIFont" font-size="13" font-weight="400" font-style="normal" 
>
</g>
</g>
</svg>
