<?xml version="1.0" encoding="UTF-8" standalone="no"?>
<svg width="189.089mm" height="204.964mm"
 viewBox="0 0 536 581"
 xmlns="http://www.w3.org/2000/svg" xmlns:xlink="http://www.w3.org/1999/xlink"  version="1.2" baseProfile="tiny">
<title>Shivangi</title>
<desc>Generated with Qt</desc>
<defs>
</defs>
<g fill="none" stroke="black" stroke-width="1" fill-rule="evenodd" stroke-linecap="square" stroke-linejoin="bevel" >

<g fill="none" stroke="#000000" stroke-opacity="1" stroke-width="1" stroke-linecap="square" stroke-linejoin="bevel" transform="matrix(1,0,0,1,0,0)"
font-family=".AppleSystemUIFont" font-size="13" font-weight="400" font-style="normal" 
>
</g>

<g fill="#000000" fill-opacity="1" stroke="none" transform="matrix(1,0,0,1,0,0)"
font-family=".AppleSystemUIFont" font-size="13" font-weight="400" font-style="normal" 
>
<path vector-effect="none" fill-rule="nonzero" d="M266.494,8.05838 C213.118,54.442 155.556,111.917 155.556,185.526 C155.556,222.835 168.115,240.985 199.513,263.168 C144.044,266.193 89.6222,268.21 34.1536,271.235 C59.2715,146.201 109.507,78.6422 224.631,17.1334 C236.143,11.0834 251.841,3.01668 265.447,1 L266.494,8.05838 M265.447,8.05838 L265.447,1 C265.447,1 263.354,1 265.447,1 C274.866,1 287.425,6.0417 297.891,12.0917 C319.869,24.1918 356.499,45.3669 384.757,69.5671 C449.644,126.034 479.995,183.509 497.787,271.235 C442.318,268.21 387.896,266.193 332.428,263.168 C363.825,240.985 376.384,223.843 376.384,185.526 C376.384,128.051 347.08,89.7339 310.45,49.4003 C288.472,26.2085 265.447,8.05838 265.447,8.05838 M261.261,11.0834 L265.447,8.05838 L269.633,11.0834 L261.261,11.0834"/>
</g>

<g fill="#000000" fill-opacity="1" stroke="none" transform="matrix(1,0,0,1,0,0)"
font-family=".AppleSystemUIFont" font-size="13" font-weight="400" font-style="normal" 
>
<path vector-effect="none" fill-rule="nonzero" d="M493.601,323.669 L486.275,505.17 C428.713,563.654 342.894,580.795 262.307,580.795 C168.115,580.795 117.88,556.595 63.4578,481.978 C48.8057,461.811 29.9673,417.444 26.8276,393.244 C68.6906,453.745 144.044,498.112 220.444,498.112 C363.825,498.112 427.666,439.628 493.601,323.669 M261.261,230.901 C261.261,219.81 259.168,194.601 253.935,173.426 C248.702,151.243 242.422,136.118 235.096,117.967 L239.283,114.942 C280.099,152.251 307.31,203.676 307.31,258.127 C307.31,359.969 222.537,466.853 117.88,494.078 C115.787,495.086 113.693,495.086 111.6,495.086 C74.9701,495.086 69.7372,457.778 46.7125,439.628 C42.5262,424.503 26.8276,409.378 26.8276,393.244 C55.0852,399.294 86.4824,392.236 112.647,385.177 C201.606,361.986 260.214,326.694 261.261,230.901 "/>
</g>

<g fill="none" stroke="#000000" stroke-opacity="1" stroke-width="1" stroke-linecap="square" stroke-linejoin="bevel" transform="matrix(1,0,0,1,0,0)"
font-family=".AppleSystemUIFont" font-size="13" font-weight="400" font-style="normal" 
>
</g>
</g>
</svg>
