<?xml version="1.0" encoding="UTF-8" standalone="no"?>
<svg width="196.497mm" height="306.564mm"
 viewBox="0 0 557 869"
 xmlns="http://www.w3.org/2000/svg" xmlns:xlink="http://www.w3.org/1999/xlink"  version="1.2" baseProfile="tiny">
<title>Tanushree B</title>
<desc>Generated with Qt</desc>
<defs>
</defs>
<g fill="none" stroke="black" stroke-width="1" fill-rule="evenodd" stroke-linecap="square" stroke-linejoin="bevel" >

<g fill="none" stroke="#000000" stroke-opacity="1" stroke-width="1" stroke-linecap="square" stroke-linejoin="bevel" transform="matrix(1,0,0,1,0,0)"
font-family=".AppleSystemUIFont" font-size="13" font-weight="400" font-style="normal" 
>
</g>

<g fill="#000000" fill-opacity="1" stroke="none" transform="matrix(1,0,0,1,0,0)"
font-family=".AppleSystemUIFont" font-size="13" font-weight="400" font-style="normal" 
>
<path vector-effect="none" fill-rule="nonzero" d="M10.08,570 C14.7467,584.667 21.7467,597.833 31.08,609.5 C40.4134,621.167 51.08,631 63.08,639 C77.08,647 90.9134,652.833 104.58,656.5 C118.247,660.167 131.413,661.833 144.08,661.5 C156.747,661.167 169.247,658.5 181.58,653.5 C193.913,648.5 207.413,641 222.08,631 C228.747,643.667 234.247,659.833 238.58,679.5 C242.913,699.167 244.08,719.833 242.08,741.5 C240.08,763.167 233.913,785 223.58,807 C213.247,829 196.413,849.333 173.08,868 C183.747,868 195.913,866.333 209.58,863 C223.247,859.667 236.413,852.667 249.08,842 C261.747,831.333 273.08,816 283.08,796 C293.08,776 299.747,749.333 303.08,716 C303.08,695.333 300.747,674.333 296.08,653 C291.413,631.667 287.747,610.333 285.08,589 C282.413,567.667 282.413,546.333 285.08,525 C287.747,503.667 296.08,482.333 310.08,461 L253.08,392 C245.747,401.333 238.747,413.167 232.08,427.5 C225.413,441.833 219.747,457 215.08,473 C210.413,489 207.413,505.167 206.08,521.5 C204.747,537.833 205.413,552.667 208.08,566 C197.413,580 185.413,589.333 172.08,594 C158.747,598.667 145.913,600.167 133.58,598.5 C121.247,596.833 110.413,593 101.08,587 C91.7467,581 86.08,575 84.08,569 C80.08,561.667 79.2467,552 81.58,540 C83.9134,528 88.08,514.5 94.08,499.5 C100.08,484.5 107.58,468.667 116.58,452 C125.58,435.333 135.08,419 145.08,403 C168.413,365 196.08,324 228.08,280 C236.747,267.333 244.747,255 252.08,243 C258.747,233 265.247,222.667 271.58,212 C277.913,201.333 282.747,192.333 286.08,185 C292.747,166.333 294.58,146.333 291.58,125 C288.58,103.667 281.747,83.8333 271.08,65.5 C260.413,47.1667 246.58,31.8333 229.58,19.5 C212.58,7.16667 193.413,1 172.08,1 C155.413,1 140.913,6.33333 128.58,17 C116.247,27.6667 108.247,43.5 104.58,64.5 C100.913,85.5 103.247,111.333 111.58,142 C119.913,172.667 134.413,208 155.08,248 C99.08,337 -34.92,455 10.08,570 M163.08,59 C178.08,30 232.08,54 232.08,119 C225.08,156 208.08,178 192.08,201 C168.08,148 149.08,89 163.08,59 M411.08,359 L429.08,276 L189.08,276 L121.08,359 L411.08,359 M450.08,493 C455.413,471 460.913,448.667 466.58,426 C472.247,403.333 477.747,381 483.08,359 C487.747,340.333 490.747,321 492.08,301 C493.413,281 493.58,260.833 492.58,240.5 C491.58,220.167 489.747,200.333 487.08,181 C484.413,161.667 481.413,143.667 478.08,127 L391.08,127 C398.413,144.333 403.747,165.667 407.08,191 C410.413,216.333 410.413,245.667 407.08,279 C407.08,281 406.913,283 406.58,285 C406.247,287 406.08,289 406.08,291 C404.08,311 400.913,329.333 396.58,346 C392.247,362.667 387.747,379.167 383.08,395.5 C378.413,411.833 373.747,428.833 369.08,446.5 C364.413,464.167 360.747,483.667 358.08,505 C355.413,539.667 359.247,568.667 369.58,592 C379.913,615.333 392.08,634.167 406.08,648.5 C420.08,662.833 433.747,673.5 447.08,680.5 C460.413,687.5 468.413,692.333 471.08,695 C463.747,676.333 457.58,659 452.58,643 C447.58,627 444.08,611.167 442.08,595.5 C440.08,579.833 439.747,563.833 441.08,547.5 C442.413,531.167 445.413,513 450.08,493 M316.08,128 L556.08,129 L556.08,75 L316.08,74 L316.08,128"/>
</g>

<g fill="none" stroke="#000000" stroke-opacity="1" stroke-width="1" stroke-linecap="square" stroke-linejoin="bevel" transform="matrix(1,0,0,1,0,0)"
font-family=".AppleSystemUIFont" font-size="13" font-weight="400" font-style="normal" 
>
</g>
</g>
</svg>
