<?xml version="1.0" encoding="UTF-8" standalone="no"?>
<svg width="289.631mm" height="240.242mm"
 viewBox="0 0 821 681"
 xmlns="http://www.w3.org/2000/svg" xmlns:xlink="http://www.w3.org/1999/xlink"  version="1.2" baseProfile="tiny">
<title>TanushreeTiwari</title>
<desc>Generated with Qt</desc>
<defs>
</defs>
<g fill="none" stroke="black" stroke-width="1" fill-rule="evenodd" stroke-linecap="square" stroke-linejoin="bevel" >

<g fill="none" stroke="#000000" stroke-opacity="1" stroke-width="1" stroke-linecap="square" stroke-linejoin="bevel" transform="matrix(1,0,0,1,0,0)"
font-family=".AppleSystemUIFont" font-size="13" font-weight="400" font-style="normal" 
>
</g>

<g fill="#000000" fill-opacity="1" stroke="none" transform="matrix(1,0,0,1,0,0)"
font-family=".AppleSystemUIFont" font-size="13" font-weight="400" font-style="normal" 
>
<path vector-effect="none" fill-rule="nonzero" d="M605,32 L755,32 L754,680 C730.667,654.667 709.667,635 691,621 C672.333,607 656.667,596.833 644,590.5 C631.333,584.167 621.667,580.5 615,579.5 C608.333,578.5 605,578 605,578 L605,32 M47,32 L248,32 L410,209 L291,306 L47,32 M136,452 L254,356 L423,533 C408.333,531.667 392.167,530.5 374.5,529.5 C356.833,528.5 339.833,529.333 323.5,532 C307.167,534.667 292.167,539.333 278.5,546 C264.833,552.667 254.667,563 248,577 L136,452 M1,1 L820,1 L820,54 L1,54 L1,1 M136,452 C138.667,444 140.333,436 141,428 C141.667,421.333 141.333,414.5 140,407.5 C138.667,400.5 135.333,394.667 130,390 L605,54 L637,97 L136,452 M385,494 L513,405 C512.333,418.333 512.5,429.667 513.5,439 C514.5,448.333 519.667,454.667 529,458 L423,533 L385,494"/>
</g>

<g fill="none" stroke="#000000" stroke-opacity="1" stroke-width="1" stroke-linecap="square" stroke-linejoin="bevel" transform="matrix(1,0,0,1,0,0)"
font-family=".AppleSystemUIFont" font-size="13" font-weight="400" font-style="normal" 
>
</g>
</g>
</svg>
