<?xml version="1.0" encoding="UTF-8" standalone="no"?>
<svg width="215.9mm" height="254.706mm"
 viewBox="0 0 612 722"
 xmlns="http://www.w3.org/2000/svg" xmlns:xlink="http://www.w3.org/1999/xlink"  version="1.2" baseProfile="tiny">
<title>tatamil</title>
<desc>Generated with Qt</desc>
<defs>
</defs>
<g fill="none" stroke="black" stroke-width="1" fill-rule="evenodd" stroke-linecap="square" stroke-linejoin="bevel" >

<g fill="none" stroke="#000000" stroke-opacity="1" stroke-width="1" stroke-linecap="square" stroke-linejoin="bevel" transform="matrix(1,0,0,1,0,0)"
font-family=".AppleSystemUIFont" font-size="13" font-weight="400" font-style="normal" 
>
</g>

<g fill="#000000" fill-opacity="1" stroke="none" transform="matrix(1,0,0,1,0,0)"
font-family=".AppleSystemUIFont" font-size="13" font-weight="400" font-style="normal" 
>
<path vector-effect="none" fill-rule="nonzero" d="M90,501 L341,501 C393,501 421,473 421,421 L421,334 L493,334 C498,334 502,338 502,343 L502,496 L501,582 L122,582 C70,582 42,610 42,662 L42,701 C42,714 49,721 62,721 L111,721 C125,721 132,714 132,701 L132,672 L510,672 C559,672 588,646 591,601 L592,501 L592,334 C592,276 560,244 502,244 L421,244 L421,174 L435,179 C447,183 456,179 460,166 L476,118 C480,105 475,97 463,93 L199,5 C191,2 183,1 174,1 L162,1 C149,1 142,8 142,21 L142,244 L90,244 C38,244 10,272 10,324 L10,421 C10,473 38,501 90,501 M100,411 L100,334 L331,334 L331,411 L100,411 M232,244 L232,111 L331,144 L331,244 L232,244"/>
</g>

<g fill="none" stroke="#000000" stroke-opacity="1" stroke-width="1" stroke-linecap="square" stroke-linejoin="bevel" transform="matrix(1,0,0,1,0,0)"
font-family=".AppleSystemUIFont" font-size="13" font-weight="400" font-style="normal" 
>
</g>
</g>
</svg>
